<svg width="42" height="40" viewBox="0 0 42 40" fill="none" xmlns="http://www.w3.org/2000/svg">
<path d="M0.618896 38.1818C0.618896 39.1636 1.4552 40 2.47736 40H26.6373C27.6781 40 28.4958 39.1636 28.4958 38.1818V36.3636H0.618896V38.1818ZM14.5573 14.5455C7.58812 14.5455 0.618896 18.1818 0.618896 25.4545H28.4958C28.4958 18.1818 21.5266 14.5455 14.5573 14.5455ZM5.48806 21.8182C7.55095 19 11.9369 18.1818 14.5573 18.1818C17.1778 18.1818 21.5637 19 23.6266 21.8182H5.48806ZM0.618896 29.0909H28.4958V32.7273H0.618896V29.0909ZM32.2127 7.27273V0H28.4958V7.27273H19.2035L19.6309 10.9091H37.3978L34.796 36.3636H32.2127V40H35.4093C36.9704 40 38.2527 38.8182 38.4385 37.3273L41.505 7.27273H32.2127Z" fill="currentColor"/>
</svg>
