<svg width="28" height="33" viewBox="0 0 28 33" fill="none" xmlns="http://www.w3.org/2000/svg">
<path fill-rule="evenodd" clip-rule="evenodd" d="M0.979614 5.01452C0.979614 3.73347 1.49539 2.50489 2.41347 1.59906C3.33155 0.69322 4.57674 0.184326 5.87511 0.184326H22.1934C23.4918 0.184326 24.737 0.69322 25.655 1.59906C26.5731 2.50489 27.0889 3.73347 27.0889 5.01452V30.7755C27.0887 31.0788 27.0017 31.3758 26.838 31.6324C26.6742 31.889 26.4403 32.0948 26.1632 32.226C25.8861 32.3573 25.5771 32.4086 25.2718 32.3742C24.9664 32.3397 24.6771 32.2209 24.4372 32.0314L21.3775 29.6163L18.3178 32.0314C18.0044 32.2792 17.6093 32.4042 17.2082 32.3825C16.8072 32.3608 16.4284 32.1939 16.1442 31.9138L14.0343 29.832L11.9243 31.9138C11.6404 32.1942 11.2616 32.3613 10.8606 32.3833C10.4595 32.4053 10.0644 32.2806 9.7507 32.033L6.69102 29.6163L3.63134 32.0314C3.39141 32.2209 3.10212 32.3397 2.79676 32.3742C2.49139 32.4086 2.18238 32.3573 1.9053 32.226C1.62822 32.0948 1.39433 31.889 1.23056 31.6324C1.06679 31.3758 0.979806 31.0788 0.979614 30.7755V5.01452ZM5.87511 3.40445C5.44232 3.40445 5.02726 3.57408 4.72123 3.87603C4.4152 4.17798 4.24328 4.5875 4.24328 5.01452V27.4266L5.67113 26.2996C5.96055 26.0709 6.32026 25.9464 6.69102 25.9464C7.06178 25.9464 7.42149 26.0709 7.71092 26.2996L10.6482 28.618L12.8806 26.4171C13.1866 26.1152 13.6016 25.9457 14.0343 25.9457C14.467 25.9457 14.8819 26.1152 15.188 26.4171L17.4187 28.618L20.3576 26.2996C20.647 26.0709 21.0067 25.9464 21.3775 25.9464C21.7483 25.9464 22.108 26.0709 22.3974 26.2996L23.8252 27.4266V5.01452C23.8252 4.5875 23.6533 4.17798 23.3473 3.87603C23.0413 3.57408 22.6262 3.40445 22.1934 3.40445H5.87511ZM7.50694 11.4548C7.50694 11.0278 7.67886 10.6182 7.98489 10.3163C8.29092 10.0143 8.70598 9.84471 9.13877 9.84471H18.9297C19.3625 9.84471 19.7776 10.0143 20.0836 10.3163C20.3897 10.6182 20.5616 11.0278 20.5616 11.4548C20.5616 11.8818 20.3897 12.2913 20.0836 12.5933C19.7776 12.8952 19.3625 13.0648 18.9297 13.0648H9.13877C8.70598 13.0648 8.29092 12.8952 7.98489 12.5933C7.67886 12.2913 7.50694 11.8818 7.50694 11.4548ZM9.13877 16.285C8.70598 16.285 8.29092 16.4546 7.98489 16.7565C7.67886 17.0585 7.50694 17.468 7.50694 17.895C7.50694 18.322 7.67886 18.7316 7.98489 19.0335C8.29092 19.3355 8.70598 19.5051 9.13877 19.5051H14.0343C14.467 19.5051 14.8821 19.3355 15.1881 19.0335C15.4942 18.7316 15.6661 18.322 15.6661 17.895C15.6661 17.468 15.4942 17.0585 15.1881 16.7565C14.8821 16.4546 14.467 16.285 14.0343 16.285H9.13877Z" fill="currentColor"/>
</svg>
