<svg width="44" height="40" viewBox="0 0 44 40" fill="none" xmlns="http://www.w3.org/2000/svg">
<path d="M11.4151 7.45098V1.17647C11.4151 0.864451 11.5383 0.565211 11.7576 0.34458C11.9769 0.123949 12.2744 0 12.5845 0C12.8947 0 13.1921 0.123949 13.4115 0.34458C13.6308 0.565211 13.754 0.864451 13.754 1.17647V7.45098C13.754 7.763 13.6308 8.06224 13.4115 8.28287C13.1921 8.5035 12.8947 8.62745 12.5845 8.62745C12.2744 8.62745 11.9769 8.5035 11.7576 8.28287C11.5383 8.06224 11.4151 7.763 11.4151 7.45098ZM18.8217 8.62745C19.1319 8.62745 19.4293 8.5035 19.6486 8.28287C19.8679 8.06224 19.9912 7.763 19.9912 7.45098V1.17647C19.9912 0.864451 19.8679 0.565211 19.6486 0.34458C19.4293 0.123949 19.1319 0 18.8217 0C18.5115 0 18.2141 0.123949 17.9948 0.34458C17.7754 0.565211 17.6522 0.864451 17.6522 1.17647V7.45098C17.6522 7.763 17.7754 8.06224 17.9948 8.28287C18.2141 8.5035 18.5115 8.62745 18.8217 8.62745ZM25.0589 8.62745C25.369 8.62745 25.6665 8.5035 25.8858 8.28287C26.1051 8.06224 26.2283 7.763 26.2283 7.45098V1.17647C26.2283 0.864451 26.1051 0.565211 25.8858 0.34458C25.6665 0.123949 25.369 0 25.0589 0C24.7487 0 24.4512 0.123949 24.2319 0.34458C24.0126 0.565211 23.8894 0.864451 23.8894 1.17647V7.45098C23.8894 7.763 24.0126 8.06224 24.2319 8.28287C24.4512 8.5035 24.7487 8.62745 25.0589 8.62745ZM43.3806 20V21.5686C43.3813 23.5093 42.6294 25.3736 41.2847 26.7651C39.9401 28.1566 38.1089 28.9655 36.1805 29.0196C35.0329 32.4267 32.9247 35.4244 30.1129 37.6471H35.9739C36.2841 37.6471 36.5815 37.771 36.8009 37.9916C37.0202 38.2123 37.1434 38.5115 37.1434 38.8235C37.1434 39.1355 37.0202 39.4348 36.8009 39.6554C36.5815 39.8761 36.2841 40 35.9739 40H1.66947C1.35931 40 1.06185 39.8761 0.84253 39.6554C0.623211 39.4348 0.5 39.1355 0.5 38.8235C0.5 38.5115 0.623211 38.2123 0.84253 37.9916C1.06185 37.771 1.35931 37.6471 1.66947 37.6471H7.53046C5.3448 35.9202 3.57667 33.7174 2.35898 31.2043C1.14128 28.6912 0.505698 25.933 0.5 23.1373V13.7255C0.5 13.4135 0.623211 13.1142 0.84253 12.8936C1.06185 12.673 1.35931 12.549 1.66947 12.549H35.9739C37.9383 12.549 39.8222 13.334 41.2112 14.7314C42.6002 16.1287 43.3806 18.0239 43.3806 20ZM34.8044 23.1373V14.902H2.83894V23.1373C2.84513 26.1717 3.70196 29.1428 5.31102 31.7094C6.92009 34.276 9.21613 36.334 11.9355 37.6471H25.7079C28.4272 36.334 30.7233 34.276 32.3324 31.7094C33.9414 29.1428 34.7983 26.1717 34.8044 23.1373ZM41.0416 20C41.0413 18.8528 40.6562 17.7392 39.9488 16.8393C39.2415 15.9395 38.253 15.3059 37.1434 15.0412V23.1373C37.1431 24.2981 37.0328 25.4563 36.814 26.5961C37.9958 26.3962 39.069 25.7815 39.8429 24.8611C40.6169 23.9407 41.0416 22.7742 41.0416 21.5686V20Z" fill="currentColor"/>
</svg>
