<svg width="35" height="33" viewBox="0 0 35 33" fill="none" xmlns="http://www.w3.org/2000/svg">
<path d="M31.7692 0H2.44379C1.79585 0.000619096 1.17464 0.247197 0.716483 0.68562C0.258324 1.12404 0.000646964 1.7185 0 2.33852V30.4008C0.000646964 31.0208 0.258324 31.6152 0.716483 32.0537C1.17464 32.4921 1.79585 32.7387 2.44379 32.7393H31.7692C32.4171 32.7384 33.0381 32.4917 33.4962 32.0533C33.9543 31.615 34.212 31.0207 34.213 30.4008V2.33852C34.2124 1.7185 33.9547 1.12404 33.4965 0.68562C33.0384 0.247197 32.4172 0.000619096 31.7692 0ZM31.7692 10.5233H14.6627V2.33852H31.7692V10.5233ZM12.2189 2.33852V10.5233H2.44379V2.33852H12.2189ZM2.44379 30.4008V12.8619H31.7692L31.7717 30.4008H2.44379Z" fill="currentColor"/>
</svg>
