<svg width="29" height="40" viewBox="0 0 29 40" fill="none" xmlns="http://www.w3.org/2000/svg">
<path d="M16.2869 8.57143L16.6343 11.4286H25.4299L24.7002 17.1429H14.3656L13.6868 11.4286H13.6949L13.3475 8.57143L13.3433 8.5367L12.5187 1.59518L12.3292 0H0.813904V2.85714H9.73016L10.409 8.57143H2.07956L5.77366 37.4972C5.86284 38.1878 6.20608 38.8229 6.73913 39.2835C7.27218 39.7442 7.95848 39.9989 8.66955 40H22.1461C22.8573 39.999 23.5437 39.7444 24.0768 39.2837C24.6099 38.823 24.9532 38.1879 25.0424 37.4972L28.7361 8.57143H16.2869ZM5.38582 11.4286H10.7484L11.4272 17.1429H6.11552L5.38582 11.4286ZM22.1474 37.1429H8.66946L6.48037 20H11.7666L13.0392 30.7143H15.9776L14.7049 20H24.3357L22.1474 37.1429Z" fill="currentColor"/>
</svg>
