<svg width="31" height="31" viewBox="0 0 31 31" fill="none" xmlns="http://www.w3.org/2000/svg">
<path d="M19.3911 30.7257H11.005C3.41552 30.7257 0.172882 27.455 0.172882 19.7998V11.3411C0.172882 3.68591 3.41552 0.415192 11.005 0.415192H13.8003C14.3734 0.415192 14.8486 0.894521 14.8486 1.47254C14.8486 2.05055 14.3734 2.52988 13.8003 2.52988H11.005C4.56162 2.52988 2.26941 4.84194 2.26941 11.3411V19.7998C2.26941 26.299 4.56162 28.6111 11.005 28.6111H19.3911C25.8344 28.6111 28.1266 26.299 28.1266 19.7998V16.9803C28.1266 16.4022 28.6018 15.9229 29.1749 15.9229C29.748 15.9229 30.2232 16.4022 30.2232 16.9803V19.7998C30.2232 27.455 26.9805 30.7257 19.3911 30.7257Z" fill="#292D32"/>
<path d="M10.3053 23.5924C9.45266 23.5924 8.66996 23.2822 8.09691 22.7183C7.41204 22.0275 7.11853 21.0266 7.27227 19.9692L7.87328 15.7257C7.98509 14.9081 8.51621 13.8507 9.08927 13.2727L20.103 2.16347C22.8844 -0.642016 25.7077 -0.642016 28.4891 2.16347C30.0126 3.70015 30.6974 5.26502 30.5577 6.82989C30.4319 8.0987 29.761 9.33932 28.4891 10.6081L17.4753 21.7174C16.9023 22.2954 15.854 22.8311 15.0433 22.9439L10.8364 23.5501C10.6547 23.5924 10.473 23.5924 10.3053 23.5924ZM21.5845 3.65786L10.5708 14.7671C10.3053 15.0349 9.99776 15.6553 9.94186 16.0218L9.34085 20.2653C9.28494 20.6741 9.3688 21.0125 9.57846 21.2239C9.78811 21.4354 10.1236 21.52 10.5289 21.4636L14.7359 20.8574C15.0993 20.801 15.7282 20.4908 15.9798 20.223L26.9936 9.11376C27.9021 8.19739 28.3773 7.37971 28.4472 6.61842C28.531 5.70206 28.0558 4.7293 26.9936 3.64376C24.7573 1.38809 23.2198 2.0225 21.5845 3.65786Z" fill="#292D32"/>
<path d="M26.1694 12.511C26.0715 12.511 25.9737 12.4969 25.8898 12.4687C22.2139 11.4254 19.2928 8.47896 18.2585 4.7712C18.1047 4.20729 18.4262 3.62927 18.9853 3.4601C19.5443 3.30502 20.1174 3.62927 20.2711 4.19319C21.1098 7.19605 23.4718 9.5786 26.4489 10.4245C27.008 10.5796 27.3295 11.1717 27.1757 11.7356C27.0499 12.2149 26.6306 12.511 26.1694 12.511Z" fill="#292D32"/>
</svg>
