<svg width="41" height="40" viewBox="0 0 41 40" fill="none" xmlns="http://www.w3.org/2000/svg">
<path d="M13.1622 20.9638C12.7673 20.9638 12.3813 21.0811 12.0529 21.3008C11.7246 21.5205 11.4687 21.8328 11.3176 22.1982C11.1665 22.5636 11.1269 22.9656 11.204 23.3535C11.281 23.7414 11.4712 24.0977 11.7504 24.3773C12.0296 24.657 12.3854 24.8474 12.7727 24.9246C13.16 25.0017 13.5614 24.9621 13.9262 24.8108C14.2911 24.6594 14.6029 24.4031 14.8223 24.0743C15.0416 23.7455 15.1587 23.3589 15.1587 22.9634C15.1587 22.4331 14.9484 21.9244 14.574 21.5495C14.1995 21.1745 13.6917 20.9638 13.1622 20.9638ZM13.1622 12.0056C12.7673 12.0056 12.3813 12.1228 12.0529 12.3426C11.7246 12.5623 11.4687 12.8746 11.3176 13.24C11.1665 13.6053 11.1269 14.0074 11.204 14.3953C11.281 14.7832 11.4712 15.1394 11.7504 15.4191C12.0296 15.6987 12.3854 15.8892 12.7727 15.9663C13.16 16.0435 13.5614 16.0039 13.9262 15.8526C14.2911 15.7012 14.6029 15.4449 14.8223 15.1161C15.0416 14.7873 15.1587 14.4006 15.1587 14.0052C15.1587 13.4748 14.9484 12.9662 14.574 12.5912C14.1995 12.2162 13.6917 12.0056 13.1622 12.0056ZM20.1302 16.0048C19.6007 16.0048 19.0928 16.2154 18.7184 16.5904C18.344 16.9654 18.1336 17.474 18.1336 18.0044V20.004C18.1336 20.5343 18.344 21.0429 18.7184 21.4179C19.0928 21.7929 19.6007 22.0036 20.1302 22.0036C20.6597 22.0036 21.1675 21.7929 21.542 21.4179C21.9164 21.0429 22.1268 20.5343 22.1268 20.004V18.0044C22.1268 17.474 21.9164 16.9654 21.542 16.5904C21.1675 16.2154 20.6597 16.0048 20.1302 16.0048ZM37.101 13.1453C36.4122 12.7484 35.6515 12.4928 34.8631 12.3932C34.0747 12.2937 33.2745 12.3522 32.5089 12.5655C31.7121 12.7792 30.9701 13.161 30.3326 13.6852L7.17249 0.267896C6.86897 0.0923943 6.52467 0 6.1742 0C5.82373 0 5.47944 0.0923943 5.17592 0.267896C4.86752 0.441514 4.61072 0.694085 4.4318 0.999758C4.25289 1.30543 4.15828 1.65323 4.15767 2.00755V28.3423C2.97941 28.7404 1.9578 29.5029 1.24014 30.5199C0.522477 31.5369 0.145845 32.756 0.164543 34.0012C0.163988 35.5648 0.773071 37.0669 1.86204 38.1874C2.95101 39.3079 4.43379 39.9583 5.99451 40H7.15252C13.6947 39.9846 20.1164 38.2358 25.7655 34.931C31.4147 31.6263 36.0901 26.8833 39.3172 21.1837C40.0625 19.82 40.2501 18.2198 39.8404 16.7202C39.4307 15.2207 38.4557 13.939 37.121 13.1453H37.101ZM8.1508 5.46686L27.8968 16.8846C25.7062 20.1584 22.7776 22.8704 19.3475 24.8016C15.9174 26.7329 12.082 27.8293 8.1508 28.0024V5.46686ZM35.8432 19.2241C32.8792 24.4544 28.5505 28.7788 23.3207 31.734C18.0908 34.6893 12.1569 36.1642 6.15424 36.0008C5.62472 36.0008 5.11688 35.7901 4.74245 35.4151C4.36803 35.0401 4.15767 34.5315 4.15767 34.0012C4.15611 33.7333 4.20833 33.4678 4.31122 33.2204C4.41412 32.9731 4.56559 32.749 4.75664 32.5615C5.13173 32.1994 5.63328 31.9985 6.15424 32.0016H7.17249C12.2991 31.9995 17.3332 30.634 21.7602 28.0448C26.1872 25.4555 29.8483 21.7353 32.3691 17.2645C32.4903 17.0452 32.6559 16.8536 32.8553 16.7021C33.0548 16.5506 33.2836 16.4425 33.5271 16.3847C34.0306 16.2463 34.5681 16.3109 35.0246 16.5647C35.4827 16.8113 35.8266 17.2271 35.9832 17.7238C36.1398 18.2205 36.0967 18.7588 35.8631 19.2241H35.8432Z" fill="currentColor"/>
</svg>
