<svg width="35" height="29" viewBox="0 0 35 29" fill="none" xmlns="http://www.w3.org/2000/svg">
<path d="M34.5471 7.99497L32.0804 0.81532C31.9946 0.567645 31.8276 0.354031 31.6049 0.207102C31.3822 0.0601733 31.116 -0.0119925 30.8471 0.00162733H3.71338C3.44442 -0.0119925 3.17827 0.0601733 2.95556 0.207102C2.73286 0.354031 2.56584 0.567645 2.48003 0.81532L0.0133268 7.99497C-0.00444226 8.12202 -0.00444226 8.25083 0.0133268 8.37788V15.5575C0.0133268 15.8749 0.143269 16.1793 0.374567 16.4037C0.605864 16.6281 0.919572 16.7541 1.24668 16.7541H2.48003V28.7202H4.94673V16.7541H12.3468V28.7202H32.0804V16.7541H33.3138C33.6409 16.7541 33.9546 16.6281 34.1859 16.4037C34.4172 16.1793 34.5471 15.8749 34.5471 15.5575V8.37788C34.5649 8.25083 34.5649 8.12202 34.5471 7.99497ZM29.6137 26.327H14.8135V16.7541H29.6137V26.327ZM32.0804 14.3609H27.147V9.57449H24.6803V14.3609H18.5136V9.57449H16.0469V14.3609H9.88012V9.57449H7.41343V14.3609H2.48003V8.56934L4.60139 2.39484H29.9591L32.0804 8.56934V14.3609Z" fill="currentColor"/>
</svg>
