<svg width="36" height="37" viewBox="0 0 36 37" fill="none" xmlns="http://www.w3.org/2000/svg">
<path d="M33.0586 19.7208C32.7649 19.3833 32.6029 18.9493 32.6029 18.5C32.6029 18.0507 32.7649 17.6167 33.0586 17.2792L35.4038 14.6155C35.6622 14.3245 35.8227 13.9583 35.8622 13.5695C35.9017 13.1807 35.8182 12.7892 35.6237 12.4513L31.9593 6.05119C31.7668 5.71365 31.4736 5.4461 31.1216 5.28667C30.7695 5.12724 30.3766 5.08407 29.9989 5.16331L26.5544 5.86622C26.1161 5.95765 25.6599 5.88396 25.2717 5.65905C24.8835 5.43414 24.5903 5.07357 24.4474 4.64538L23.3298 1.26034C23.2069 0.892946 22.9727 0.573838 22.6604 0.348126C22.3481 0.122414 21.9734 0.00151457 21.5893 0.00251558H14.2606C13.8611 -0.0185383 13.4657 0.093017 13.1348 0.320143C12.804 0.54727 12.5559 0.877482 12.4284 1.26034L11.4024 4.64538C11.2595 5.07357 10.9663 5.43414 10.5781 5.65905C10.19 5.88396 9.7337 5.95765 9.29541 5.86622L5.75933 5.16331C5.40123 5.11223 5.03617 5.16927 4.71013 5.32727C4.38409 5.48528 4.11166 5.73716 3.92716 6.05119L0.262826 12.4513C0.0634132 12.7855 -0.0262493 13.1747 0.00665726 13.5634C0.0395639 13.9521 0.193355 14.3204 0.446043 14.6155L2.77289 17.2792C3.06663 17.6167 3.22862 18.0507 3.22862 18.5C3.22862 18.9493 3.06663 19.3833 2.77289 19.7208L0.446043 22.3845C0.193355 22.6796 0.0395639 23.0479 0.00665726 23.4366C-0.0262493 23.8253 0.0634132 24.2145 0.262826 24.5487L3.92716 30.9488C4.11972 31.2863 4.4129 31.5539 4.76492 31.7133C5.11694 31.8728 5.50983 31.9159 5.88758 31.8367L9.33205 31.1338C9.77034 31.0424 10.2266 31.116 10.6148 31.341C11.0029 31.5659 11.2961 31.9264 11.439 32.3546L12.5567 35.7397C12.6841 36.1225 12.9323 36.4527 13.2631 36.6799C13.5939 36.907 13.9893 37.0185 14.3888 36.9975H21.7175C22.1016 36.9985 22.4763 36.8776 22.7886 36.6519C23.101 36.4262 23.3352 36.1071 23.4581 35.7397L24.5757 32.3546C24.7186 31.9264 25.0118 31.5659 25.4 31.341C25.7881 31.116 26.2444 31.0424 26.6827 31.1338L30.1272 31.8367C30.5049 31.9159 30.8978 31.8728 31.2498 31.7133C31.6018 31.5539 31.895 31.2863 32.0876 30.9488L35.7519 24.5487C35.9464 24.2108 36.0299 23.8193 35.9904 23.4305C35.9509 23.0417 35.7905 22.6755 35.532 22.3845L33.0586 19.7208ZM30.3287 22.1995L31.7944 23.8643L29.4493 27.9707L27.2873 27.5268C25.9677 27.2544 24.5951 27.4807 23.4298 28.1627C22.2646 28.8447 21.388 29.9349 20.9663 31.2263L20.2701 33.298H15.5797L14.9202 31.1893C14.4985 29.8979 13.6219 28.8077 12.4566 28.1257C11.2914 27.4438 9.91875 27.2175 8.59919 27.4898L6.43723 27.9337L4.05541 23.8458L5.52115 22.181C6.42249 21.1636 6.9208 19.8465 6.9208 18.4815C6.9208 17.1165 6.42249 15.7994 5.52115 14.782L4.05541 13.1172L6.40059 9.04779L8.56254 9.49173C9.88211 9.76405 11.2548 9.53775 12.42 8.85578C13.5852 8.17381 14.4619 7.08365 14.8835 5.79223L15.5797 3.70201H20.2701L20.9663 5.81073C21.388 7.10214 22.2646 8.19231 23.4298 8.87428C24.5951 9.55624 25.9677 9.78255 27.2873 9.51022L29.4493 9.06628L31.7944 13.1727L30.3287 14.8375C29.4375 15.8526 28.9454 17.162 28.9454 18.5185C28.9454 19.875 29.4375 21.1844 30.3287 22.1995ZM17.9249 11.101C16.4754 11.101 15.0585 11.535 13.8533 12.348C12.6481 13.161 11.7088 14.3165 11.1541 15.6685C10.5994 17.0205 10.4543 18.5082 10.7371 19.9435C11.0198 21.3787 11.7178 22.6971 12.7428 23.7319C13.7677 24.7666 15.0735 25.4713 16.4952 25.7568C17.9168 26.0423 19.3903 25.8958 20.7295 25.3358C22.0686 24.7758 23.2132 23.8274 24.0185 22.6107C24.8238 21.3939 25.2536 19.9634 25.2536 18.5C25.2536 16.5377 24.4815 14.6557 23.1071 13.2681C21.7327 11.8805 19.8686 11.101 17.9249 11.101ZM17.9249 22.1995C17.2002 22.1995 16.4917 21.9825 15.8891 21.576C15.2865 21.1695 14.8169 20.5917 14.5395 19.9157C14.2622 19.2397 14.1896 18.4959 14.331 17.7783C14.4724 17.0606 14.8214 16.4014 15.3338 15.8841C15.8463 15.3667 16.4992 15.0143 17.21 14.8716C17.9209 14.7288 18.6576 14.8021 19.3272 15.0821C19.9968 15.3621 20.5691 15.8363 20.9717 16.4447C21.3743 17.053 21.5893 17.7683 21.5893 18.5C21.5893 19.4812 21.2032 20.4221 20.516 21.1159C19.8288 21.8097 18.8968 22.1995 17.9249 22.1995Z" fill="currentColor"/>
</svg>
